<svg width="1028" height="238" viewBox="0 0 1028 238" fill="none" xmlns="http://www.w3.org/2000/svg">
<path d="M290.846 76.6836C305.357 76.6836 318.863 80.3665 331.364 87.7334C343.419 94.8769 353.019 104.477 360.162 116.532C367.529 129.034 371.213 142.54 371.213 157.051C370.543 179.821 362.618 198.796 347.438 213.977C332.481 228.934 313.616 236.747 290.846 237.417C276.335 237.417 262.829 233.734 250.327 226.367C238.272 219.224 228.673 209.623 221.529 197.568C214.163 185.067 210.479 171.561 210.479 157.051C210.479 142.54 214.162 129.034 221.529 116.532C228.673 104.477 238.272 94.8769 250.327 87.7334C262.829 80.3664 276.335 76.6836 290.846 76.6836ZM461.548 76.6836C476.058 76.6836 489.564 80.3664 502.066 87.7334C514.121 94.8769 523.72 104.477 530.864 116.532C538.231 129.034 541.917 142.54 541.917 157.051C541.247 179.821 533.32 198.796 518.14 213.977C503.182 228.934 484.319 236.747 461.548 237.417C447.037 237.417 433.531 233.734 421.029 226.367C408.974 219.224 399.375 209.623 392.231 197.568C384.865 185.067 381.181 171.561 381.181 157.051C381.181 142.54 384.865 129.034 392.231 116.532C399.375 104.477 408.974 94.8769 421.029 87.7334C433.531 80.3665 447.037 76.6836 461.548 76.6836ZM947.493 76.6836C962.002 76.6836 975.506 80.3665 988.012 87.7334C1000.07 94.8769 1009.66 104.477 1016.81 116.532C1024.18 129.034 1027.86 142.54 1027.86 157.051C1027.19 179.821 1019.26 198.796 1004.08 213.977C989.126 228.934 970.264 236.747 947.493 237.417C932.978 237.417 919.474 233.734 906.975 226.367C894.92 219.224 885.318 209.623 878.177 197.568C870.81 185.067 867.126 171.561 867.126 157.051C867.126 142.54 870.81 129.034 878.177 116.532C885.318 104.477 894.92 94.8769 906.975 87.7334C919.474 80.3664 932.978 76.6836 947.493 76.6836ZM632.581 76.6836C651.559 76.6836 668.527 82.8223 683.479 95.1006C683.479 95.1006 686.049 93.8724 691.182 91.417C691.182 91.417 693.081 90.6361 696.874 89.0732C696.874 89.0732 696.99 88.9617 697.209 88.7383C697.209 88.7383 697.435 88.6268 697.879 88.4033H698.214C698.239 88.3921 703.152 86.1594 712.948 81.7061V157.051C712.729 171.561 708.929 184.956 701.562 197.234C694.421 209.289 684.819 218.777 672.765 225.697C660.265 233.064 646.871 236.748 632.581 236.748C618.073 236.748 604.568 233.176 592.062 226.032C580.008 218.889 570.413 209.289 563.265 197.234C556.123 184.956 552.439 171.561 552.214 157.051C552.214 142.763 555.788 129.368 562.93 116.867C570.078 104.812 579.672 95.2119 591.728 88.0684C604.233 80.478 617.847 76.6836 632.581 76.6836ZM139.303 77.0186C154.706 77.0186 167.877 82.4877 178.816 93.4268C189.978 104.366 195.56 117.648 195.56 133.275V232.729H166.092V132.605C166.092 125.239 163.412 118.988 158.055 113.854C152.92 108.496 146.67 105.816 139.303 105.816C131.936 105.816 125.574 108.496 120.216 113.854C115.081 118.988 112.514 125.238 112.514 132.605V232.729H83.0459V132.605C83.0459 125.239 80.3665 118.988 75.0088 113.854C69.8745 108.496 63.6237 105.816 56.2568 105.816C48.8899 105.816 42.6383 108.384 37.5039 113.519C32.1464 118.653 29.4678 124.904 29.4678 132.271V232.729H0V132.94C0 117.537 5.46915 104.366 16.4082 93.4268C27.3473 82.4877 40.6297 77.0186 56.2568 77.0186C72.1066 77.0186 85.9478 83.1572 97.7793 95.4355C103.137 89.408 109.5 84.8312 116.867 81.7061C124.011 78.581 131.49 77.0186 139.303 77.0186ZM852.063 29.1396H852.051V232.729H822.583V29.1396H812.952C798.997 29.4192 787.027 34.4389 777.042 44.2021C767.215 54.0245 762.308 65.9681 762.308 80.0322V82.041H801.821V111.509H762.308V232.729H732.84V80.0322C733.51 57.4851 741.321 38.6208 756.28 23.4404C771.4 8.31864 790.29 0.507281 812.943 0.00585938V0H852.063V29.1396ZM290.846 106.151C276.782 106.151 264.726 111.174 254.681 121.22C244.858 131.042 239.946 142.987 239.946 157.051C239.946 171.115 244.858 183.17 254.681 193.216C264.726 203.038 276.782 207.949 290.846 207.949C304.91 207.949 316.853 203.038 326.676 193.216C336.722 183.17 341.745 171.115 341.745 157.051C341.745 143.426 337.031 131.791 327.604 122.147L325.749 120.293C316.105 110.865 304.47 106.151 290.846 106.151ZM461.548 106.151C447.484 106.151 435.429 111.174 425.383 121.22C415.56 131.042 410.648 142.987 410.648 157.051C410.649 171.115 415.56 183.17 425.383 193.216C435.429 203.038 447.484 207.949 461.548 207.949C475.612 207.949 487.555 203.038 497.378 193.216C507.424 183.17 512.447 171.115 512.447 157.051C512.447 143.426 507.733 131.791 498.306 122.147L496.451 120.293C486.807 110.865 475.173 106.151 461.548 106.151ZM632.581 106.151C618.517 106.151 606.462 111.174 596.416 121.22C586.596 131.042 581.682 142.987 581.682 157.051C581.682 171.115 586.596 183.17 596.416 193.216C606.462 203.038 618.517 207.949 632.581 207.949C646.645 207.949 658.591 203.038 668.411 193.216C678.457 183.17 683.479 171.115 683.479 157.051C683.479 142.987 678.457 131.042 668.411 121.22C658.591 111.174 646.645 106.151 632.581 106.151ZM947.493 106.151C933.429 106.151 921.374 111.174 911.328 121.22C901.501 131.042 896.594 142.987 896.594 157.051C896.594 171.115 901.501 183.17 911.328 193.216C921.374 203.038 933.429 207.949 947.493 207.949C961.557 207.949 973.496 203.038 983.323 193.216C993.369 183.17 998.393 171.115 998.393 157.051C998.393 143.426 993.679 131.791 984.251 122.147L982.396 120.293C972.749 110.865 961.118 106.151 947.493 106.151ZM686.828 4.6875C693.976 4.6875 700.114 7.25507 705.246 12.3896C710.385 17.5242 712.948 23.6638 712.948 30.8076C712.948 37.9511 710.385 43.9784 705.246 48.8896C700.114 54.024 693.976 56.5918 686.828 56.5918C679.687 56.5917 673.659 54.0239 668.746 48.8896C663.614 43.9784 661.044 37.9512 661.044 30.8076C661.044 23.6638 663.614 17.5242 668.746 12.3896C673.659 7.25525 679.687 4.68761 686.828 4.6875Z" fill="white"/>
</svg>
