<?xml version="1.0" encoding="UTF-8"?>
<svg version="1.1" xmlns="http://www.w3.org/2000/svg" width="1024" height="1024">
<path d="M0 0 C1.15266357 0.49145508 2.30532715 0.98291016 3.49291992 1.48925781 C19.53916765 8.51583529 19.53916765 8.51583529 21.625 12.6875 C22.1875 15.375 22.1875 15.375 21.625 18.6875 C16.37044333 24.80484077 9.16744868 28.41191544 2.125 32.0625 C-0.02530201 33.20076106 -2.1750414 34.34008561 -4.32421875 35.48046875 C-5.36368652 36.02880371 -6.4031543 36.57713867 -7.47412109 37.14208984 C-11.25060112 39.15396651 -14.97257778 41.25232483 -18.6875 43.375 C-43.66953694 57.5009345 -64.38221914 66.87456259 -93.703125 63.62890625 C-94.73580505 63.5202977 -95.76848511 63.41168915 -96.8324585 63.29978943 C-100.09729483 62.95572923 -103.36117564 62.6035204 -106.625 62.25 C-161.64157649 56.34215211 -218.57292944 54.75886016 -264.0625 91.1875 C-293.55420251 115.80522366 -307.23418402 151.84019821 -311.17871094 189.26928711 C-318.33267077 277.40358086 -274.93546986 368.41569298 -228.375 440.6875 C-227.58246826 441.91871582 -227.58246826 441.91871582 -226.77392578 443.17480469 C-216.13741585 459.6096305 -204.40912915 475.25664085 -192.375 490.6875 C-191.48434315 491.83721491 -190.59371916 492.98695528 -189.703125 494.13671875 C-183.8990987 501.60359807 -177.90986912 508.88261197 -171.75878906 516.06542969 C-170.34980955 517.71702812 -168.9508387 519.37661017 -167.5546875 521.0390625 C-162.60138358 526.93421602 -157.58234289 532.74640308 -152.40234375 538.4453125 C-150.63532801 540.39958424 -148.90586471 542.37809737 -147.1875 544.375 C-138.05976041 554.80966594 -128.41100589 564.74756477 -118.625 574.5625 C-117.74303955 575.44905273 -116.8610791 576.33560547 -115.95239258 577.24902344 C-115.12763428 578.07176758 -114.30287598 578.89451172 -113.453125 579.7421875 C-112.71481445 580.47937012 -111.97650391 581.21655273 -111.21582031 581.97607422 C-109.4767467 583.75391175 -109.4767467 583.75391175 -107.375 584.6875 C-107.375 585.3475 -107.375 586.0075 -107.375 586.6875 C-106.80265625 586.93113281 -106.2303125 587.17476562 -105.640625 587.42578125 C-102.97066462 588.91267298 -101.23670993 590.66833908 -99.125 592.875 C-95.69314248 596.38523599 -92.1855258 599.68820514 -88.4609375 602.8828125 C-86.12474499 604.90401276 -83.84535149 606.98128839 -81.5625 609.0625 C-77.26891368 612.93783743 -72.84411998 616.6097131 -68.34765625 620.24609375 C-65.03747734 622.96470323 -61.80025024 625.7585689 -58.5625 628.5625 C-52.28952942 633.97362046 -45.84875286 639.12740698 -39.296875 644.1953125 C-37.23236141 645.79824785 -35.17817524 647.41382058 -33.125 649.03125 C-19.30428601 659.89427668 -5.14621284 670.23382846 9.41259766 680.08666992 C19.36449764 686.84469824 19.36449764 686.84469824 20.6875 691.125 C20.60713417 695.70585236 19.85306337 696.44531974 16.625 699.6875 C13.095713 702.10276089 9.4076544 704.20670279 5.6875 706.3125 C4.61935059 706.92424072 3.55120117 707.53598145 2.45068359 708.16625977 C-0.81496911 710.02437023 -4.09155692 711.86103166 -7.375 713.6875 C-8.80561768 714.48341553 -8.80561768 714.48341553 -10.26513672 715.29541016 C-49.9383815 737.1642844 -49.9383815 737.1642844 -71.875 731.25 C-86.40251904 726.18552111 -98.52971716 715.18161248 -110.375 705.6875 C-110.92317383 705.24873535 -111.47134766 704.8099707 -112.03613281 704.35791016 C-124.98208112 693.95905785 -137.58425178 683.11983453 -149.80615234 671.8815918 C-153.04374196 668.90470315 -156.29407856 665.94310422 -159.5625 663 C-160.366875 662.27554688 -161.17125 661.55109375 -162 660.8046875 C-163.57302789 659.40241592 -165.15631382 658.01156074 -166.75 656.6328125 C-167.513125 655.97023438 -168.27625 655.30765625 -169.0625 654.625 C-169.72636719 654.05652344 -170.39023437 653.48804688 -171.07421875 652.90234375 C-173.00797876 651.04081247 -174.7152409 649.16384359 -176.45703125 647.12890625 C-181.14443031 641.70221731 -186.27251851 636.71816372 -191.375 631.6875 C-197.05131217 626.0910823 -202.68299799 620.50657456 -207.86816406 614.44384766 C-210.09117871 611.85273175 -212.42303341 609.37316984 -214.75 606.875 C-219.10145073 602.17028392 -223.1943184 597.30843612 -227.2109375 592.3125 C-229.27286082 589.81139446 -231.4192104 587.43673172 -233.625 585.0625 C-238.77074849 579.40841933 -243.31786868 573.33937727 -247.91796875 567.2421875 C-250.19987441 564.21994174 -252.51307832 561.22725023 -254.86328125 558.2578125 C-262.04782103 549.17392311 -268.79498422 539.90705428 -275.2421875 530.28515625 C-277.50027535 526.9281153 -279.848742 523.65349995 -282.24609375 520.39453125 C-286.55857878 514.49844348 -290.58208593 508.43621395 -294.5625 502.3125 C-295.11233551 501.46812378 -295.11233551 501.46812378 -295.67327881 500.60668945 C-346.61355931 422.34192042 -387.53712378 336.27957004 -401.5625 203.5 C-401.56156342 202.68091156 -401.56062683 201.86182312 -401.55966187 201.01791382 C-401.53022845 189.13276038 -401.35920115 177.43311329 -399.375 165.6875 C-399.21370605 164.71377441 -399.05241211 163.74004883 -398.88623047 162.73681641 C-394.960433 139.6205702 -388.89065698 118.12607458 -379.375 96.6875 C-378.93269043 95.68879883 -378.93269043 95.68879883 -378.48144531 94.66992188 C-369.9880722 75.85664379 -357.7266917 58.25780763 -343.69921875 43.19921875 C-341.7514689 41.0943395 -339.89971863 38.95012602 -338.0625 36.75 C-300.62112045 -5.99050752 -241.91813129 -28.36568127 -186.375 -32.3125 C-185.0748999 -32.4050708 -185.0748999 -32.4050708 -183.74853516 -32.49951172 C-121.20089961 -36.62413278 -57.54370903 -24.55908443 0 0 Z " fill="#CCF16B" transform="translate(457.375,92.3125)"/>
<path d="M0 0 C0.963116 -0.00701431 1.92623199 -0.01402863 2.91853333 -0.02125549 C6.00433088 -0.03864057 9.08993655 -0.04510642 12.17578125 -0.046875 C13.23007324 -0.04754974 14.28436523 -0.04822449 15.37060547 -0.04891968 C30.63095722 -0.03338404 45.46012304 0.3157179 60.48828125 3.203125 C61.41253906 3.36941406 62.33679688 3.53570312 63.2890625 3.70703125 C101.13680184 10.62102964 138.3532716 26.63203299 168.125 51.25 C171.56872876 54.09605683 175.11667267 56.80843653 178.65234375 59.5390625 C179.25820313 60.08820313 179.8640625 60.63734375 180.48828125 61.203125 C180.48828125 61.863125 180.48828125 62.523125 180.48828125 63.203125 C181.05160156 63.44160156 181.61492188 63.68007812 182.1953125 63.92578125 C190.8546655 68.7496457 197.48540688 78.5093001 203.48828125 86.203125 C204.24109375 87.1621875 204.99390625 88.12125 205.76953125 89.109375 C210.78321764 95.63403537 215.29249421 102.34949498 219.45703125 109.44628906 C220.16010891 110.6440511 220.86868298 111.83859968 221.58203125 113.03027344 C242.61221375 148.24487591 252.13131804 189.46762169 253.48828125 230.203125 C253.51164551 230.90066895 253.53500977 231.59821289 253.55908203 232.31689453 C254.95638353 282.27922966 242.89948126 331.14554039 227.30078125 378.203125 C227.04874939 378.96584717 226.79671753 379.72856934 226.53704834 380.5144043 C217.70329695 407.15324688 217.70329695 407.15324688 212.48828125 410.203125 C209.61328125 410.328125 209.61328125 410.328125 206.48828125 409.203125 C201.54757182 404.51549539 197.77342427 398.53045746 193.92578125 392.953125 C193.3215332 392.08051025 192.71728516 391.20789551 192.09472656 390.30883789 C190.84086804 388.49674797 189.5884331 386.68367221 188.33740234 384.86962891 C186.5882129 382.34723029 184.81757032 379.84162164 183.0390625 377.33984375 C158.2167481 342.18187125 155.01547964 311.88704838 160.515625 269.9609375 C166.01732102 227.66583566 161.43825887 180.39114383 134.98828125 145.328125 C133.83879859 143.93872738 132.67154017 142.56387275 131.48828125 141.203125 C130.8128125 140.40777344 130.13734375 139.61242187 129.44140625 138.79296875 C105.42708291 111.24462265 70.54928496 95.66136586 34.2890625 92.484375 C-38.62421652 87.57629667 -109.33679282 115.65868878 -171.87353516 150.73095703 C-174.37185098 152.12507552 -176.8829022 153.49273887 -179.3984375 154.85546875 C-196.45481131 164.2139085 -212.45016009 175.25739018 -228.51171875 186.203125 C-229.53313965 186.89792969 -230.55456055 187.59273437 -231.60693359 188.30859375 C-243.78169615 196.62115305 -255.54842449 205.42320588 -267.21435547 214.43310547 C-269.22449257 215.98182959 -271.24193816 217.51983746 -273.265625 219.05078125 C-279.27793723 223.60838833 -285.11276775 228.33039485 -290.84301758 233.23510742 C-294.07733867 236.00239628 -297.35431552 238.69401371 -300.69921875 241.328125 C-305.00687173 244.74213198 -309.09092423 248.3566477 -313.15234375 252.05859375 C-315.20799271 253.92705613 -317.28661776 255.76006236 -319.38671875 257.578125 C-324.2008127 261.77354021 -328.89210182 266.10253503 -333.58325195 270.43432617 C-335.06753125 271.79571414 -336.55979762 273.14839779 -338.05541992 274.49731445 C-345.72705033 281.44954918 -353.11460324 288.65108638 -360.42260742 295.98364258 C-362.33594069 297.90238005 -364.25462379 299.81565254 -366.17382812 301.72851562 C-371.61114266 307.16288294 -377.01009396 312.57691095 -381.99194336 318.43823242 C-384.8362332 321.74126395 -387.88248437 324.85874515 -390.88671875 328.015625 C-395.96907413 333.39214 -400.79566029 338.8418809 -405.40625 344.62890625 C-407.68372721 347.41342848 -410.07483883 350.05726303 -412.51171875 352.703125 C-417.40545392 358.03286116 -421.97293158 363.57074029 -426.51171875 369.203125 C-427.5563151 370.47996623 -428.6019533 371.75595557 -429.6484375 373.03125 C-435.22182939 379.83300962 -440.70293023 386.67110533 -445.93359375 393.7421875 C-450.11789654 399.38926721 -454.41974919 404.94870081 -458.68945312 410.53125 C-462.91066045 416.06331659 -467.05198507 421.63046363 -471.03125 427.33984375 C-472.51171875 429.203125 -472.51171875 429.203125 -475.51171875 431.203125 C-479.31163278 431.13403565 -481.63720204 431.05788877 -484.4140625 428.34375 C-487.43347239 423.82306928 -489.49000469 418.99898636 -491.63671875 414.015625 C-492.11318848 412.91935791 -492.5896582 411.82309082 -493.08056641 410.69360352 C-518.17984343 352.34835648 -518.17984343 352.34835648 -510.4609375 331.34375 C-503.8410188 316.89319002 -492.50215143 304.79005154 -482.07568359 292.98925781 C-479.59636991 290.1577469 -477.18038972 287.27391631 -474.76171875 284.390625 C-470.77889119 279.65703623 -466.70003582 275.02311443 -462.5390625 270.4453125 C-460.77204676 268.49104076 -459.04258346 266.51252763 -457.32421875 264.515625 C-447.1054869 252.82229525 -436.21652233 241.74390693 -425.22314453 230.78417969 C-423.11372218 228.68018763 -421.00979436 226.57080465 -418.90625 224.4609375 C-417.5380814 223.09342878 -416.16960314 221.7262298 -414.80078125 220.359375 C-414.18602936 219.74259888 -413.57127747 219.12582275 -412.93789673 218.49035645 C-409.19805421 214.77033093 -405.34144795 211.23727752 -401.34306335 207.7963562 C-398.38469943 205.22264195 -395.55119288 202.51834046 -392.69921875 199.828125 C-387.75423013 195.20040189 -382.69944637 190.80484682 -377.41015625 186.5703125 C-373.9364016 183.73325681 -370.571427 180.78439319 -367.19921875 177.828125 C-361.87023397 173.17267217 -356.44090369 168.69924532 -350.84790039 164.36547852 C-347.06955987 161.4365119 -343.34644582 158.4504291 -339.65063477 155.41796875 C-325.39853323 143.72464553 -310.50509339 132.92058719 -295.51171875 122.203125 C-294.78275391 121.68186035 -294.05378906 121.1605957 -293.30273438 120.62353516 C-278.71498115 110.21164057 -263.8209077 100.3098427 -248.73730469 90.6328125 C-247.24936676 89.6769805 -245.76304357 88.71863035 -244.27832031 87.7578125 C-232.17116418 79.92715726 -219.79285664 72.69663128 -207.18798828 65.69775391 C-204.8047656 64.36678426 -202.43493397 63.01598717 -200.0703125 61.65234375 C-149.95899234 32.92566353 -93.48864599 12.16347559 -36.38671875 3.328125 C-35.71762482 3.22457703 -35.04853088 3.12102905 -34.35916138 3.01434326 C-22.90267724 1.2638382 -11.59302448 0.05693053 0 0 Z " fill="#CCF16B" transform="translate(713.51171875,57.796875)"/>
<path d="M0 0 C8.31273863 6.49820819 16.39885342 13.27756553 24.42456055 20.12548828 C27.67392155 22.89598018 30.97444793 25.58750608 34.3125 28.25 C40.04035867 32.89329371 45.36394897 37.94538926 50.69458008 43.03613281 C51.35353271 43.66358398 52.01248535 44.29103516 52.69140625 44.9375 C53.28123291 45.50339844 53.87105957 46.06929688 54.47875977 46.65234375 C55.9759963 48.09564596 55.9759963 48.09564596 58 49 C58 49.66 58 50.32 58 51 C58.57129639 51.24459961 59.14259277 51.48919922 59.73120117 51.74121094 C62.39887305 53.22130522 64.16853761 54.95923182 66.30078125 57.140625 C67.11353516 57.96433594 67.92628906 58.78804688 68.76367188 59.63671875 C69.60478516 60.49910156 70.44589844 61.36148438 71.3125 62.25 C78.64452889 69.76274554 78.64452889 69.76274554 86.51635742 76.69458008 C88.17985668 78.15825138 89.57498683 79.74273023 91 81.4375 C94.60763026 85.69286388 98.5374819 89.57977952 102.5 93.5 C106.9116101 97.87322973 111.25266934 102.23318357 115.265625 106.98046875 C117.61244434 109.71313902 120.05814781 112.35262117 122.5 115 C130.58373651 123.78950263 138.33253396 132.84712607 146 142 C146.5460791 142.65178223 147.0921582 143.30356445 147.65478516 143.97509766 C156.39642271 154.43558249 164.81681382 165.09800189 173 176 C173.55123535 176.72880371 174.1024707 177.45760742 174.67041016 178.20849609 C184.66982696 191.44395145 193.90848637 205.12931754 203 219 C203.90443848 220.37333496 203.90443848 220.37333496 204.82714844 221.77441406 C233.82556515 265.81143223 259.41148343 312.80801027 276 363 C276.29970703 363.89267578 276.59941406 364.78535156 276.90820312 365.70507812 C296.42874454 424.03385298 309.84096728 490.62115355 298 552 C297.69400879 553.58748047 297.69400879 553.58748047 297.38183594 555.20703125 C294.44536289 569.89367081 290.51261701 584.07382359 285 598 C284.65565918 598.86995605 284.31131836 599.73991211 283.95654297 600.63623047 C261.27660417 657.12692824 216.6724692 700.42409559 161.11279297 724.70947266 C143.98114145 731.81205383 126.22739668 736.72379106 108 740 C106.7610498 740.24339111 106.7610498 740.24339111 105.49707031 740.49169922 C76.33986819 746.10419999 43.18572485 744.98777713 14 740 C12.2375293 739.70996094 12.2375293 739.70996094 10.43945312 739.4140625 C-26.09177207 733.2781802 -61.47275232 721.94593183 -95.9375 708.5 C-96.72350586 708.19827881 -97.50951172 707.89655762 -98.31933594 707.58569336 C-102.30741258 705.97421633 -105.35754927 704.44986623 -108 701 C-109.02750173 696.17864571 -109.02750173 696.17864571 -108 693 C-102.25883375 685.868016 -91.5906733 681.75422017 -83.65820312 677.45361328 C-78.78605944 674.78932751 -73.95737341 672.04804969 -69.125 669.3125 C-68.1340332 668.75328857 -67.14306641 668.19407715 -66.12207031 667.61791992 C-61.25257291 664.86500779 -56.41793587 662.07116197 -51.625 659.1875 C-25.57173077 643.93587816 -4.04694601 643.33499829 25.18212891 647.8815918 C26.64224627 648.10860197 28.10237 648.33557117 29.5625 648.5625 C30.28636902 648.67518219 31.01023804 648.78786438 31.75604248 648.90396118 C42.16486943 650.51611794 52.44930478 651.87520683 63 652 C63.82983398 652.0117627 64.65966797 652.02352539 65.51464844 652.03564453 C101.37296526 652.33225504 137.22573263 643.44817075 165 620 C166.41539062 618.83017578 166.41539062 618.83017578 167.859375 617.63671875 C195.33829322 593.92256757 209.44829043 558.03446701 212.3984375 522.5234375 C212.69982072 518.35025966 212.86815553 514.18194165 213 510 C213.04125 508.86691406 213.0825 507.73382812 213.125 506.56640625 C214.08168709 455.80219764 196.82326775 403.70068652 176 358 C175.57364258 357.05237793 175.14728516 356.10475586 174.70800781 355.12841797 C157.74023181 317.56652525 134.96139871 281.35267439 109.52929688 248.96923828 C107.47523811 246.32427691 105.48198248 243.63638648 103.48828125 240.94580078 C97.36019639 232.67650517 90.94123568 224.67655542 84.40869141 216.72460938 C82.55982915 214.46111493 80.74809255 212.16916695 78.9375 209.875 C74.29623036 204.05638523 69.41898728 198.44278063 64.55566406 192.81005859 C63.04636553 191.05394758 61.54859789 189.28874085 60.0546875 187.51953125 C53.22480446 179.44691761 46.13023762 171.66832845 38.86914062 163.98242188 C36.89109537 161.88449509 34.92125302 159.77910663 32.953125 157.671875 C31.61458864 156.23957837 30.2760471 154.80728659 28.9375 153.375 C28.31834717 152.71193848 27.69919434 152.04887695 27.0612793 151.36572266 C21.77893735 145.72553765 16.32969594 140.33559499 10.625 135.125 C7.08000517 131.87364403 3.55854242 128.62082496 0.1875 125.1875 C-2.63005883 122.32195355 -5.59963045 119.69507147 -8.64453125 117.07421875 C-11.01625718 114.98568397 -13.32883936 112.84480903 -15.63818359 110.68798828 C-21.00177245 105.6810335 -26.4558514 100.88258146 -32.1796875 96.28515625 C-35.37232253 93.69832592 -38.49902535 91.04155179 -41.625 88.375 C-45.86875134 84.76697974 -50.15765493 81.24414377 -54.58203125 77.859375 C-56.44640818 76.42570227 -58.29524154 74.97824948 -60.13671875 73.515625 C-72.74041457 63.51140774 -85.72708023 54.11771049 -98.94775391 44.94604492 C-116.63233435 32.6544954 -116.63233435 32.6544954 -117.625 28.1875 C-116.69801545 23.45987881 -113.77628601 21.78286098 -110 19 C-106.62039883 16.81130253 -103.14422844 14.82965834 -99.625 12.875 C-98.62766846 12.31804443 -97.63033691 11.76108887 -96.6027832 11.18725586 C-31.8339655 -24.52554357 -31.8339655 -24.52554357 0 0 Z " fill="#CDF16B" transform="translate(662,215)"/>
<path d="M0 0 C4.09237512 0.56169855 5.71956194 2.32380497 8.1875 5.4375 C10.21870134 8.59545023 11.98904219 11.87279042 13.75 15.1875 C14.51957031 16.62005127 14.51957031 16.62005127 15.3046875 18.08154297 C19.24898492 25.50109271 23.01633566 33.00445546 26.6875 40.5625 C27.42528687 42.07021973 27.42528687 42.07021973 28.17797852 43.60839844 C35.6828666 59.30926103 40.87540275 76.38409959 35.3125 93.5625 C28.09153914 111.29036458 13.99246721 126.38235778 1.64404297 140.74267578 C0.12430789 142.51102994 -1.38892005 144.28483665 -2.90234375 146.05859375 C-11.32705264 155.89341947 -19.91801205 165.65792018 -29.15625 174.7421875 C-31.49001695 177.11027455 -33.69536357 179.5344908 -35.90234375 182.01953125 C-40.72063403 187.40233246 -45.76153832 192.53870938 -50.87866211 197.6340332 C-52.38056925 199.13054925 -53.87701062 200.632383 -55.37304688 202.13476562 C-60.14924388 206.91391387 -64.9644149 211.59373745 -70.12280273 215.9621582 C-71.93734043 217.54650314 -73.62629876 219.21789621 -75.3125 220.9375 C-78.30122337 223.97344925 -81.42956479 226.78258659 -84.65625 229.5625 C-87.01212958 231.61109094 -89.3175746 233.70953002 -91.625 235.8125 C-95.99535684 239.76121445 -100.51553079 243.4837721 -105.09375 247.1875 C-107.73397729 249.37251569 -110.2797972 251.62921391 -112.8125 253.9375 C-117.98785879 258.64163303 -123.36259236 263.05647747 -128.8125 267.4375 C-129.95707133 268.3632317 -131.10160069 269.28901529 -132.24609375 270.21484375 C-171.05191955 301.51994617 -212.25156193 329.17820829 -255.8125 353.4375 C-256.50907715 353.82711914 -257.2056543 354.21673828 -257.92333984 354.61816406 C-310.21329323 383.67524954 -368.74598154 404.19343796 -427.8125 413.4375 C-428.85615723 413.60266113 -429.89981445 413.76782227 -430.97509766 413.93798828 C-485.32014218 422.11468939 -541.17867085 415.68755456 -591.8125 394.4375 C-592.50520996 394.14681641 -593.19791992 393.85613281 -593.91162109 393.55664062 C-616.89413576 383.72791356 -637.95761123 369.29502535 -656.015625 352.078125 C-658.32730565 349.89558852 -660.6731311 347.83283997 -663.125 345.8125 C-664.011875 345.02875 -664.89875 344.245 -665.8125 343.4375 C-665.8125 342.7775 -665.8125 342.1175 -665.8125 341.4375 C-666.4725 341.4375 -667.1325 341.4375 -667.8125 341.4375 C-670.39478746 339.01757193 -672.56155567 336.16212131 -674.8125 333.4375 C-675.2544873 332.90640625 -675.69647461 332.3753125 -676.15185547 331.828125 C-711.73619572 288.90942328 -729.81135607 237.0124786 -731.8125 181.4375 C-731.84118164 180.72416504 -731.86986328 180.01083008 -731.89941406 179.27587891 C-733.89342348 122.57281374 -717.11318584 66.98096178 -697.75 14.375 C-697.39236572 13.394104 -697.03473145 12.41320801 -696.66625977 11.40258789 C-696.33166748 10.51563232 -695.9970752 9.62867676 -695.65234375 8.71484375 C-695.36738037 7.95421631 -695.08241699 7.19358887 -694.78881836 6.40991211 C-693.71471986 4.23995917 -692.69794162 2.95194004 -690.8125 1.4375 C-687.5625 0.75 -687.5625 0.75 -683.8125 1.4375 C-678.46161676 6.21685409 -674.5054952 12.56223386 -670.5625 18.5 C-666.56709513 24.44124886 -662.49294864 30.27991508 -658.1875 36 C-640.53757882 59.6972789 -627.99842252 84.30926859 -632.37353516 114.56835938 C-633.08628532 119.15987515 -633.87827117 123.73713309 -634.6875 128.3125 C-641.84397056 168.78934729 -643.99415999 211.68869543 -624.8125 249.4375 C-624.34199219 250.40171875 -623.87148438 251.3659375 -623.38671875 252.359375 C-606.54745668 285.1840774 -576.23501743 307.17136893 -541.61669922 318.42138672 C-533.45820115 320.95563887 -525.21289392 322.89861401 -516.8125 324.4375 C-514.97365234 324.7778125 -514.97365234 324.7778125 -513.09765625 325.125 C-460.73153856 332.90696176 -403.22738612 320.10207645 -354.8125 300.4375 C-353.64557617 299.96739502 -353.64557617 299.96739502 -352.45507812 299.48779297 C-336.22978678 292.89180283 -320.49641513 285.21442939 -304.8125 277.4375 C-303.79365723 276.93347656 -302.77481445 276.42945313 -301.72509766 275.91015625 C-285.1874424 267.67063586 -269.47643349 258.20676632 -253.8125 248.4375 C-253.05582031 247.96683105 -252.29914063 247.49616211 -251.51953125 247.01123047 C-247.57566654 244.54831496 -243.6769454 242.02276983 -239.8125 239.4375 C-239.10399902 238.96425293 -238.39549805 238.49100586 -237.66552734 238.00341797 C-226.45227919 230.48504616 -215.50649418 222.67718063 -204.8125 214.4375 C-204.20567383 213.97102051 -203.59884766 213.50454102 -202.97363281 213.02392578 C-194.37964482 206.39871702 -186.04670098 199.50270801 -177.8125 192.4375 C-176.67988259 191.46982369 -175.54706722 190.50237905 -174.4140625 189.53515625 C-171.47652642 187.02544084 -168.54577321 184.50794328 -165.6171875 181.98779297 C-163.80010386 180.42685126 -161.97834819 178.87148952 -160.15625 177.31640625 C-152.10159619 170.41757245 -144.30103359 163.2922106 -136.59765625 156.00390625 C-133.29038588 152.8763517 -129.93562686 149.80610997 -126.5625 146.75 C-122.34735191 142.89862496 -118.2342272 138.96412756 -114.1875 134.9375 C-113.67799805 134.43259033 -113.16849609 133.92768066 -112.64355469 133.4074707 C-110.41851758 131.17295406 -108.56925887 129.07263831 -106.8125 126.4375 C-106.1525 126.4375 -105.4925 126.4375 -104.8125 126.4375 C-104.59980469 125.89609375 -104.38710938 125.3546875 -104.16796875 124.796875 C-102.32222276 121.58410677 -99.77250269 119.23249268 -97.125 116.6875 C-92.45641778 112.10583287 -88.03454152 107.43751604 -83.8125 102.4375 C-82.43152853 100.82538796 -81.04784647 99.2156211 -79.66430664 97.60571289 C-78.10149739 95.78512067 -76.54282073 93.96104674 -74.984375 92.13671875 C-72.94533501 89.75263925 -70.89378278 87.38057537 -68.828125 85.01953125 C-62.83899708 78.15061084 -57.17189392 71.10668274 -51.67700195 63.8359375 C-48.04764667 59.03520874 -44.34177213 54.30847069 -40.5625 49.625 C-33.75990464 41.17139576 -27.28989726 32.50383241 -20.95996094 23.69262695 C-4.4339222 0.68972123 -4.4339222 0.68972123 0 0 Z " fill="#CCF16B" transform="translate(786.8125,544.5625)"/>
</svg>
